<svg version="1" xmlns="http://www.w3.org/2000/svg" width="800" height="800" viewBox="0 0 600.000000 600.000000"><path d="M118.5 1.6C87.2 7.3 63.1 19.8 40.9 41.9 21.1 61.8 8.7 84.9 2.4 114 .6 122.1.5 130.7.5 298.5c0 96.8.3 178 .7 180.5 1.6 9.4 2.1 11.6 4.3 19.5 10.7 36.7 36.5 68.1 70.7 85.8 10.3 5.3 28 11.6 37.3 13.2 1.7.3 4.8.9 7 1.3 5.3.9 351.6.9 358 0 31.4-4.7 57.6-17.8 79.6-39.8 20.8-20.7 33-43.4 39.5-73 1.8-8.1 1.9-16.5 1.9-186V122.5l-2.3-10.2c-2.4-10.6-2.2-12.4 1.2-15.3 1.4-1.1 1.6-7 1.6-49.1V0h-51.7c-49.2 0-51.8.1-53.7 1.9-2 1.8-2.3 1.8-10.6.1C476.1.3 464.1.2 301 .2 153.8.2 125.3.4 118.5 1.6z"/></svg>